<mxfile host="app.diagrams.net" modified="2022-01-24T12:16:37.925Z" agent="5.0 (Windows NT 10.0; Win64; x64) AppleWebKit/537.36 (KHTML, like Gecko) Chrome/97.0.4692.71 Safari/537.36" etag="ICoXeFKZ-gVU3MUwzNwl" version="16.4.5" type="github">
  <diagram id="zacrkn34sIO4L3OqYdmY" name="Page-1">
    <mxGraphModel dx="1422" dy="1612" grid="1" gridSize="10" guides="1" tooltips="1" connect="1" arrows="1" fold="1" page="1" pageScale="1" pageWidth="1100" pageHeight="850" math="0" shadow="0">
      <root>
        <mxCell id="0" />
        <mxCell id="1" parent="0" />
        <mxCell id="84d6I-7gki2v_Zni0cwv-1" value="" style="endArrow=classic;html=1;rounded=0;strokeWidth=5;" parent="1" edge="1">
          <mxGeometry width="50" height="50" relative="1" as="geometry">
            <mxPoint x="260" y="160" as="sourcePoint" />
            <mxPoint x="930" y="160" as="targetPoint" />
          </mxGeometry>
        </mxCell>
        <mxCell id="84d6I-7gki2v_Zni0cwv-2" value="timeline" style="text;html=1;align=center;verticalAlign=middle;resizable=0;points=[];autosize=1;strokeColor=none;fillColor=none;" parent="1" vertex="1">
          <mxGeometry x="555" y="170" width="60" height="20" as="geometry" />
        </mxCell>
        <mxCell id="84d6I-7gki2v_Zni0cwv-3" value="" style="rounded=0;whiteSpace=wrap;html=1;fillColor=none;strokeWidth=3;dashed=1;" parent="1" vertex="1">
          <mxGeometry x="340" y="-240" width="130" height="370" as="geometry" />
        </mxCell>
        <mxCell id="84d6I-7gki2v_Zni0cwv-4" value="原配置文件:config.property" style="text;html=1;align=center;verticalAlign=middle;resizable=0;points=[];autosize=1;strokeColor=none;fillColor=none;" parent="1" vertex="1">
          <mxGeometry x="850" y="-210" width="160" height="20" as="geometry" />
        </mxCell>
        <mxCell id="84d6I-7gki2v_Zni0cwv-5" value="Conf A" style="rounded=1;whiteSpace=wrap;html=1;strokeWidth=3;fillColor=none;" parent="1" vertex="1">
          <mxGeometry x="360" y="-110" width="90" height="30" as="geometry" />
        </mxCell>
        <mxCell id="84d6I-7gki2v_Zni0cwv-6" value="Conf B" style="rounded=1;whiteSpace=wrap;html=1;strokeWidth=3;fillColor=none;" parent="1" vertex="1">
          <mxGeometry x="530" y="-215" width="90" height="30" as="geometry" />
        </mxCell>
        <mxCell id="84d6I-7gki2v_Zni0cwv-7" value="Conf ...." style="rounded=1;whiteSpace=wrap;html=1;strokeWidth=3;fillColor=none;" parent="1" vertex="1">
          <mxGeometry x="690" y="-215" width="90" height="30" as="geometry" />
        </mxCell>
        <mxCell id="84d6I-7gki2v_Zni0cwv-8" value="" style="rounded=0;whiteSpace=wrap;html=1;fillColor=none;strokeWidth=3;dashed=1;strokeColor=#00CC00;" parent="1" vertex="1">
          <mxGeometry x="305" y="-465" width="470" height="80" as="geometry" />
        </mxCell>
        <mxCell id="84d6I-7gki2v_Zni0cwv-9" value="原配置文件:&lt;font color=&quot;#00cc00&quot;&gt;config_gray.property&lt;/font&gt;&lt;br&gt;灰度分流方案:&lt;font color=&quot;#00cc00&quot;&gt;服务IP sharding,10%生效&lt;/font&gt;" style="text;html=1;align=left;verticalAlign=middle;resizable=0;points=[];autosize=1;strokeColor=none;fillColor=none;" parent="1" vertex="1">
          <mxGeometry x="780" y="-440" width="230" height="30" as="geometry" />
        </mxCell>
        <mxCell id="84d6I-7gki2v_Zni0cwv-10" value="Conf A" style="rounded=1;whiteSpace=wrap;html=1;strokeWidth=3;fillColor=none;fontColor=#00CC00;strokeColor=#00CC00;" parent="1" vertex="1">
          <mxGeometry x="335" y="-440" width="90" height="30" as="geometry" />
        </mxCell>
        <mxCell id="84d6I-7gki2v_Zni0cwv-11" value="Conf B" style="rounded=1;whiteSpace=wrap;html=1;strokeWidth=3;fillColor=none;fontColor=#00CC00;strokeColor=#00CC00;" parent="1" vertex="1">
          <mxGeometry x="495" y="-440" width="90" height="30" as="geometry" />
        </mxCell>
        <mxCell id="84d6I-7gki2v_Zni0cwv-13" value="" style="shape=flexArrow;endArrow=classic;html=1;rounded=0;strokeWidth=5;entryX=0.538;entryY=-0.025;entryDx=0;entryDy=0;entryPerimeter=0;" parent="1" edge="1">
          <mxGeometry width="50" height="50" relative="1" as="geometry">
            <mxPoint x="1090.1399999999999" y="-380" as="sourcePoint" />
            <mxPoint x="1090" y="-307" as="targetPoint" />
          </mxGeometry>
        </mxCell>
        <mxCell id="84d6I-7gki2v_Zni0cwv-14" value="读取灰度配置文件 + 灰度策略,覆盖配置项" style="text;html=1;align=center;verticalAlign=middle;resizable=0;points=[];autosize=1;strokeColor=none;fillColor=none;fontColor=#00CC00;" parent="1" vertex="1">
          <mxGeometry x="950" y="-530" width="240" height="20" as="geometry" />
        </mxCell>
        <mxCell id="84d6I-7gki2v_Zni0cwv-17" value="gray strategy" style="rounded=1;whiteSpace=wrap;html=1;strokeWidth=3;fillColor=none;fontColor=#00CC00;strokeColor=#00CC00;" parent="1" vertex="1">
          <mxGeometry x="405" y="-530" width="290" height="30" as="geometry" />
        </mxCell>
        <mxCell id="84d6I-7gki2v_Zni0cwv-18" value="&lt;font style=&quot;font-size: 30px&quot;&gt;+&lt;/font&gt;" style="text;html=1;align=center;verticalAlign=middle;resizable=0;points=[];autosize=1;strokeColor=none;fillColor=none;fontColor=#00CC00;" parent="1" vertex="1">
          <mxGeometry x="535" y="-495" width="30" height="30" as="geometry" />
        </mxCell>
        <mxCell id="ui761RJsWRANSTcA28Vu-1" value="配置中心&lt;br&gt;Dashboard" style="shape=umlLifeline;perimeter=lifelinePerimeter;whiteSpace=wrap;html=1;container=1;collapsible=0;recursiveResize=0;outlineConnect=0;strokeWidth=3;" vertex="1" parent="1">
          <mxGeometry x="298" y="345" width="100" height="505" as="geometry" />
        </mxCell>
        <mxCell id="ui761RJsWRANSTcA28Vu-9" value="" style="html=1;points=[];perimeter=orthogonalPerimeter;strokeWidth=3;" vertex="1" parent="ui761RJsWRANSTcA28Vu-1">
          <mxGeometry x="45" y="75" width="10" height="80" as="geometry" />
        </mxCell>
        <mxCell id="ui761RJsWRANSTcA28Vu-24" value="" style="html=1;points=[];perimeter=orthogonalPerimeter;strokeWidth=3;" vertex="1" parent="ui761RJsWRANSTcA28Vu-1">
          <mxGeometry x="45" y="275" width="10" height="80" as="geometry" />
        </mxCell>
        <mxCell id="ui761RJsWRANSTcA28Vu-2" value="云平台用户" style="shape=umlActor;verticalLabelPosition=bottom;verticalAlign=top;html=1;" vertex="1" parent="1">
          <mxGeometry x="333" y="260" width="30" height="60" as="geometry" />
        </mxCell>
        <mxCell id="ui761RJsWRANSTcA28Vu-8" value="配置中心服务端" style="shape=umlLifeline;perimeter=lifelinePerimeter;whiteSpace=wrap;html=1;container=1;collapsible=0;recursiveResize=0;outlineConnect=0;strokeWidth=3;" vertex="1" parent="1">
          <mxGeometry x="703" y="345" width="100" height="505" as="geometry" />
        </mxCell>
        <mxCell id="ui761RJsWRANSTcA28Vu-10" value="" style="html=1;points=[];perimeter=orthogonalPerimeter;strokeWidth=3;" vertex="1" parent="ui761RJsWRANSTcA28Vu-8">
          <mxGeometry x="45" y="75" width="10" height="75" as="geometry" />
        </mxCell>
        <mxCell id="ui761RJsWRANSTcA28Vu-25" value="" style="html=1;points=[];perimeter=orthogonalPerimeter;strokeWidth=3;" vertex="1" parent="ui761RJsWRANSTcA28Vu-8">
          <mxGeometry x="45" y="275" width="10" height="135" as="geometry" />
        </mxCell>
        <mxCell id="ui761RJsWRANSTcA28Vu-11" value="" style="edgeStyle=orthogonalEdgeStyle;rounded=0;orthogonalLoop=1;jettySize=auto;html=1;strokeWidth=3;" edge="1" parent="1">
          <mxGeometry relative="1" as="geometry">
            <mxPoint x="353" y="435" as="sourcePoint" />
            <mxPoint x="748" y="435" as="targetPoint" />
          </mxGeometry>
        </mxCell>
        <mxCell id="ui761RJsWRANSTcA28Vu-12" value="请求动态配置文件" style="edgeLabel;html=1;align=center;verticalAlign=middle;resizable=0;points=[];" vertex="1" connectable="0" parent="ui761RJsWRANSTcA28Vu-11">
          <mxGeometry x="-0.0582" y="-1" relative="1" as="geometry">
            <mxPoint as="offset" />
          </mxGeometry>
        </mxCell>
        <mxCell id="ui761RJsWRANSTcA28Vu-18" value="包含:&lt;br&gt;参数key&lt;br&gt;参数值&lt;br&gt;描述&lt;br&gt;参数类型:JSON/text&lt;br&gt;参数值正则表达式" style="text;html=1;align=left;verticalAlign=middle;resizable=0;points=[];autosize=1;strokeColor=none;fillColor=none;" vertex="1" parent="1">
          <mxGeometry x="510" y="490" width="120" height="90" as="geometry" />
        </mxCell>
        <mxCell id="ui761RJsWRANSTcA28Vu-26" style="edgeStyle=orthogonalEdgeStyle;rounded=0;orthogonalLoop=1;jettySize=auto;html=1;entryX=-0.3;entryY=0.533;entryDx=0;entryDy=0;entryPerimeter=0;strokeWidth=3;" edge="1" parent="1">
          <mxGeometry relative="1" as="geometry">
            <mxPoint x="353" y="635.9749999999999" as="sourcePoint" />
            <mxPoint x="745" y="635.9749999999999" as="targetPoint" />
          </mxGeometry>
        </mxCell>
        <mxCell id="ui761RJsWRANSTcA28Vu-27" value="j" style="edgeLabel;html=1;align=center;verticalAlign=middle;resizable=0;points=[];" vertex="1" connectable="0" parent="ui761RJsWRANSTcA28Vu-26">
          <mxGeometry x="0.1582" y="-1" relative="1" as="geometry">
            <mxPoint as="offset" />
          </mxGeometry>
        </mxCell>
        <mxCell id="ui761RJsWRANSTcA28Vu-28" value="请求参数保存" style="edgeLabel;html=1;align=center;verticalAlign=middle;resizable=0;points=[];" vertex="1" connectable="0" parent="ui761RJsWRANSTcA28Vu-26">
          <mxGeometry x="0.1735" y="-1" relative="1" as="geometry">
            <mxPoint as="offset" />
          </mxGeometry>
        </mxCell>
        <mxCell id="ui761RJsWRANSTcA28Vu-33" value="返回: 配置表格" style="html=1;verticalAlign=bottom;endArrow=open;dashed=1;endSize=8;rounded=0;strokeWidth=3;" edge="1" parent="1" target="ui761RJsWRANSTcA28Vu-1">
          <mxGeometry relative="1" as="geometry">
            <mxPoint x="750" y="490" as="sourcePoint" />
            <mxPoint x="670" y="490" as="targetPoint" />
          </mxGeometry>
        </mxCell>
      </root>
    </mxGraphModel>
  </diagram>
</mxfile>
